# Pentagonal trapezohedron (d10), 2 studs across. Generated for Debris Clear.
o Decahedron
v 0.000000 1.000000 0.000000
v 0.000000 -1.000000 0.000000
v 1.000000 0.105573 0.000000
v 0.309017 0.105573 0.951057
v -0.809017 0.105573 0.587785
v -0.809017 0.105573 -0.587785
v 0.309017 0.105573 -0.951057
v 0.809017 -0.105573 0.587785
v -0.309017 -0.105573 0.951057
v -1.000000 -0.105573 0.000000
v -0.309017 -0.105573 -0.951057
v 0.809017 -0.105573 -0.587785
vn 0.599991 0.670810 0.435919
vn 0.229176 -0.670810 0.705331
vn -0.229176 0.670810 0.705331
vn -0.599991 -0.670810 0.435919
vn -0.741629 0.670810 0.000000
vn -0.599991 -0.670810 -0.435919
vn -0.229176 0.670810 -0.705331
vn 0.229176 -0.670810 -0.705331
vn 0.599991 0.670810 -0.435919
vn 0.741629 -0.670810 -0.000000
s off
f 1//1 4//1 8//1 3//1
f 2//2 8//2 4//2 9//2
f 1//3 5//3 9//3 4//3
f 2//4 9//4 5//4 10//4
f 1//5 6//5 10//5 5//5
f 2//6 10//6 6//6 11//6
f 1//7 7//7 11//7 6//7
f 2//8 11//8 7//8 12//8
f 1//9 3//9 12//9 7//9
f 2//10 12//10 3//10 8//10
